# xmcd CD database file
#
# Track frame offsets:
#	150
#	15710
#	27427
#	38537
#	54708
#	66512
#	78425
#	93207
#	105767
#	120938
#	132707
#	146500
#	159552
#	173284
#	186996
#	202130
#	217050
#	229462
#
# Disc length: 3224 seconds
#
# Revision: 0
# Processed by: cddbd v1.5.2PL0 Copyright (c) Steve Scherf et al.
# Submitted via: CDex 1.97
#
DISCID=fa0c9612
DTITLE=Various Artist - Dance 2020 [CD2)
DYEAR=2020
DGENRE=Hits
TTITLE0=Gims (Ft. Maluma) - Hola Senorita
TTITLE1=Lum!X and Gabry Ponte - Monster
TTITLE2=Ofenbach - Rock It
TTITLE3=Petit Biscuit and Jp Cooper - We Were Young
TTITLE4=Kiiara - Open My Mouth
TTITLE5=Galantis and Yellow Clow - We Can Get High
TTITLE6=Lizzo - Juice
TTITLE7=Vize (Ft. Laniia) - Stars
TTITLE8=Noraa - Lie To Me
TTITLE9=Stone Van Brooken - Decisions
TTITLE10=Chuck Wonderland (Ft. Larry Lynch) - Free Like A Bird
TTITLE11=Boris Way (Ft. Kimberly Cole) - Wasted Love
TTITLE12=Hyphen Hyphen (Ft. Kiiara) - Lonely Baby
TTITLE13=Lenni-Kim - Minuit
TTITLE14=Mel - Molo
TTITLE15=Tydiaz - Vale
TTITLE16=Marnik - Up and Down
TTITLE17=Robin Schulz (Ft. Harloe) - All This Love
EXTD=YEAR: 2020
EXTT0=
EXTT1=
EXTT2=
EXTT3=
EXTT4=
EXTT5=
EXTT6=
EXTT7=
EXTT8=
EXTT9=
EXTT10=
EXTT11=
EXTT12=
EXTT13=
EXTT14=
EXTT15=
EXTT16=
EXTT17=
PLAYORDER=
